<?xml version="1.0" encoding="UTF-8"?>
<svg id="Layer_2" data-name="Layer 2" xmlns="http://www.w3.org/2000/svg" viewBox="0 0 720 360">
  <defs>
    <style>
      .cls-1 {
        letter-spacing: -.06em;
      }

      .cls-2 {
        letter-spacing: .46em;
      }

      .cls-3 {
        letter-spacing: .42em;
      }

      .cls-4 {
        font-family: LateSerifVariable-Bold, 'Late Serif Variable';
        font-size: 40.62px;
        font-variation-settings: 'wght' 700;
        font-weight: 700;
      }

      .cls-4, .cls-5, .cls-6 {
        fill: #fff;
      }

      .cls-7 {
        letter-spacing: .03em;
      }

      .cls-8 {
        letter-spacing: .47em;
      }

      .cls-9 {
        letter-spacing: .04em;
      }

      .cls-10 {
        letter-spacing: .02em;
      }

      .cls-11 {
        fill: none;
      }

      .cls-12 {
        letter-spacing: .41em;
      }

      .cls-13 {
        letter-spacing: .43em;
      }

      .cls-14 {
        letter-spacing: .43em;
      }

      .cls-15 {
        letter-spacing: .43em;
      }

      .cls-16 {
        letter-spacing: .42em;
      }

      .cls-17 {
        letter-spacing: .44em;
      }

      .cls-18 {
        letter-spacing: 0em;
      }

      .cls-6 {
        font-family: QuincyCF-Black, 'Quincy CF';
        font-size: 101.89px;
        font-weight: 800;
      }

      .cls-19 {
        letter-spacing: .02em;
      }

      .cls-20 {
        letter-spacing: .45em;
      }

      .cls-21 {
        letter-spacing: .44em;
      }

      .cls-22 {
        letter-spacing: 0em;
      }
    </style>
  </defs>
  <g id="graphic">
    <g>
      <text class="cls-6" transform="translate(16.21 279.22)"><tspan class="cls-1" x="0" y="0">W</tspan><tspan class="cls-19" x="101.38" y="0">O</tspan><tspan class="cls-10" x="177.5" y="0">O</tspan><tspan class="cls-7" x="253.92" y="0">D</tspan><tspan class="cls-22" x="331.66" y="0">G</tspan><tspan class="cls-18" x="405.74" y="0">R</tspan><tspan class="cls-9" x="479.81" y="0">E</tspan><tspan class="cls-22" x="547.78" y="0">E</tspan><tspan x="612.58" y="0">N</tspan></text>
      <text class="cls-4" transform="translate(115.62 333.1)"><tspan class="cls-2" x="0" y="0">L</tspan><tspan class="cls-12" x="43.74" y="0">A</tspan><tspan class="cls-8" x="89.53" y="0">N</tspan><tspan class="cls-15" x="142.01" y="0">D</tspan><tspan class="cls-14" x="192.19" y="0">S</tspan><tspan class="cls-21" x="234.76" y="0">C</tspan><tspan class="cls-20" x="281.4" y="0">A</tspan><tspan class="cls-16" x="328.62" y="0">P</tspan><tspan class="cls-13" x="373.34" y="0">I</tspan><tspan class="cls-3" x="407.92" y="0">N</tspan><tspan class="cls-17" x="458.33" y="0">G</tspan></text>
      <path class="cls-5" d="M356.93,119.48c.3.8.55,1.41,1.46,1.64l3.45.07c2.48-9.1,2.73-18.66,4.66-27.86,3.59-17.16,17.48-51.05,10.04-66.73-6.19-13.04-24.49-14.43-32.04-1.71-9.23,15.54,4.2,46.12,7.63,63.28,1.8,9.03,1.92,23.5,4.81,31.31Z"/>
      <path class="cls-5" d="M369.12,123.29l3.95-.18c6.77-13.81,18.84-23.8,31.85-31.6,12.62-7.57,28.08-10.45,25.01-29.56-.45-2.81-4.3-7.32-6.63-8.84-19.6-12.78-37.3,18.2-43.72,32.67-2.15,4.84-13.24,34.9-10.46,37.52Z"/>
      <path class="cls-5" d="M315.77,92.54c8.92,5.42,16.59,10.86,23.4,18.91,2.46,2.92,6.43,10.54,8.23,12.19,1.13,1.04,1.75.72,3.14.68,2.81-2.74-8.7-32.19-10.87-37.12-4.5-10.26-11.2-23.48-20.18-30.39-12.94-9.95-31.23-7.8-29.87,11.3,1.02,14.4,16,18.25,26.14,24.42Z"/>
      <path class="cls-5" d="M559.46,126.88c-.74.31-1.48.64-2.24,1.01-24.15,11.89-14.01,49.07,11.42,42.38,12.86-3.38,11.34-23.36-.32-19.94-4.94,1.45-2.91,8.06-5.51,8.97-9,3.15-14.21-16.4.67-22.06,28.69-10.92,43.34,37.19,9.5,45.62-25.48,6.35-43.52-10.35-60.26-29.47-12.06-13.77-23.44-28.79-36.43-37.35-34.78-22.94-87.69-13.39-107.35,24.81-.57-5.79-4.78-8.71-8.94-8.71-4.16,0-8.37,2.91-8.94,8.71-19.66-38.19-72.57-47.74-107.35-24.81-12.99,8.56-24.37,23.59-36.43,37.35-16.74,19.11-34.79,35.81-60.26,29.47-33.84-8.43-19.19-56.54,9.5-45.62,14.87,5.66,9.66,25.21.67,22.06-2.61-.91-.57-7.52-5.51-8.97-11.67-3.42-13.18,16.56-.32,19.94,25.43,6.7,35.57-30.48,11.42-42.38-.75-.37-1.49-.7-2.24-1.01-35.19-14.9-59.44,32.36-34.06,58.18,9.95,11.63,29.78,15.54,49.02,8.46,5.68-2.09,10.77-4.94,15.14-8.32,3.36-2.59,6.28-5.49,8.7-8.6,0,0,21.68-21.33,21.69-21.34-.67.66.44,5.83.57,6.82.94,7.46,2.67,14.08,7.35,20.16,8.41,10.92,23.13,15.74,36.43,12.27,15.82-4.13,28.8-20.44,25.91-37.16-.55-3.2-1.68-6.3-3.44-9.04-12.82-20.01-46.22-9.35-40.01,14.21,2.48,9.42,16.1,11.05,17.9,2.31,1.49-7.23-5.85-7.2-6.07-8.05-2-7.77,14.39-11.51,19.43-.76,10.09,21.51-31.81,41.22-45.02,13.03-6.7-14.29-2.2-26.23,7.13-35.05,10.73-10.15,27.86-16.18,41.69-16.96,18.58-1.05,43.4,7.37,57.29,22.68,6.33,6.98,10.39,15.41,10.55,25.02.02,1.46-.04,2.95-.2,4.47-1.03,9.58-8.96,14.34-17.68,15.38-6.14.73-12.67-.37-17.47-2.94-10.75-5.77-6.24-22.11,4.67-20.21,5.98,1.04.02,5.62-.09,7.74-.15,2.95,3.07,6.78,6.28,6.81,5.13.06,7.85-4.22,7.94-9.24.14-7.29-4.84-13.38-11.79-15.24-13.1-3.5-23.66,9.51-23.22,21.73.12,3.31.97,6.58,2.49,9.52.41,1.19,1.26,2.16,2.01,3.16,10.32,13.75,34.53,15.33,47.11,3.95,2.27-2.05,4.13-4.52,5.66-7.16.56-.97,2.83-4.55,3.53-6.73.71,2.18,2.97,5.77,3.53,6.73,1.53,2.64,3.39,5.11,5.66,7.16,12.58,11.38,36.79,9.8,47.11-3.95.75-.99,1.59-1.97,2.01-3.16,1.53-2.94,2.37-6.21,2.49-9.52.44-12.22-10.12-25.24-23.22-21.73-6.95,1.86-11.93,7.95-11.79,15.24.09,5.02,2.81,9.3,7.94,9.24,3.21-.04,6.44-3.86,6.28-6.81-.11-2.13-6.07-6.7-.09-7.74,10.92-1.9,15.43,14.44,4.67,20.21-4.8,2.57-11.33,3.68-17.47,2.94-8.72-1.04-16.65-5.8-17.68-15.38-.16-1.52-.23-3-.2-4.47.16-9.61,4.21-18.03,10.55-25.02,13.89-15.31,38.71-23.73,57.29-22.68,13.83.78,30.95,6.81,41.69,16.96,9.33,8.82,13.83,20.75,7.13,35.05-13.21,28.19-55.11,8.48-45.02-13.03,5.04-10.75,21.43-7.02,19.43.76-.22.85-7.56.83-6.07,8.05,1.81,8.75,15.42,7.11,17.9-2.31,6.2-23.56-27.2-34.22-40.01-14.21-1.75,2.74-2.89,5.84-3.44,9.04-2.88,16.72,10.09,33.03,25.91,37.16,13.3,3.47,28.02-1.34,36.43-12.27,4.68-6.08,6.42-12.7,7.35-20.16.13-1,1.24-6.16.57-6.82,0,0,21.69,21.34,21.69,21.34,2.42,3.1,5.35,6,8.7,8.6,4.37,3.37,9.46,6.23,15.14,8.32,19.23,7.07,39.07,3.17,49.02-8.46,25.38-25.82,1.13-73.08-34.06-58.18Z"/>
      <rect class="cls-11" width="720" height="360"/>
    </g>
  </g>
</svg>