<?xml version="1.0" encoding="UTF-8"?>
<svg id="Layer_2" xmlns="http://www.w3.org/2000/svg" viewBox="0 0 1080 1080">
  <defs>
    <style>
      .cls-1 {
        fill: #b3d336;
      }

      .cls-2 {
        fill: #496138;
      }
    </style>
  </defs>
  <g id="Layer_1-2" data-name="Layer_1">
    <rect class="cls-1" x="0" y="0" width="1080" height="1080" rx="540" ry="540"/>
    <g>
      <path class="cls-2" d="M884.81,561.67c6.4-18.76,15.47-46.73,0-64.16-25.32-28.53-49.61,49.42-51.66,53.33-49.06,93.34-129.92,107.96-228.32,108.33,49.53,51.02,127.25,76.99,147.49-14.17,7.13,31.22-14.12,57.67-6.67,60,67.05-22.93,99.98-78.23,135.83-134.99-23.52,56.2-96.6,148.26-160.83,154.99-54.51,5.71-138.03-35.8-157.49-89.16-23.34-64.02-8.07-165.8,35-219.99,74.69-93.98,199.29-35.48,259.15-165.83,16.16,205.53-170.83,67.94-265.82,224.16q13.75-13.75,27.5-27.5c75.46-60.63,150.29-31.93,226.66-68.33-69.52,160.1-168.19,30.17-227.49,104.16-17.44,21.77-24.63,59.39-23.33,86.66,2.73,57.43,24.29,70.22,77.5,47.5,57.23-24.44,82.84-88.54,105.83-119.16,76.72-102.2,165.63-25.04,106.66,64.16Z"/>
      <path class="cls-2" d="M655.65,480c19.27-2.8,46.68,9.07,52.5,29.17,12.54,43.33-35.4,74.53-53.33,36.66,46.08-12.92,9.5-69.84-43.33,0-1.95-25.1,17.8-62,44.16-65.83Z"/>
      <path class="cls-2" d="M195.19,561.67c-6.4-18.76-15.47-46.73,0-64.16,25.32-28.53,49.61,49.42,51.66,53.33,49.06,93.34,129.92,107.96,228.32,108.33-49.53,51.02-127.25,76.99-147.49-14.17-7.13,31.22,14.12,57.67,6.67,60-67.05-22.93-99.98-78.23-135.83-134.99,23.52,56.2,96.6,148.26,160.83,154.99,54.51,5.71,138.03-35.8,157.49-89.16,23.34-64.02,8.07-165.8-35-219.99-74.69-93.98-199.29-35.48-259.15-165.83-16.16,205.53,170.83,67.94,265.82,224.16q-13.75-13.75-27.5-27.5c-75.46-60.63-150.29-31.93-226.66-68.33,69.52,160.1,168.19,30.17,227.49,104.16,17.44,21.77,24.63,59.39,23.33,86.66-2.73,57.43-24.29,70.22-77.5,47.5-57.23-24.44-82.84-88.54-105.83-119.16-76.72-102.2-165.63-25.04-106.66,64.16Z"/>
      <path class="cls-2" d="M424.35,480c-19.27-2.8-46.68,9.07-52.5,29.17-12.54,43.33,35.4,74.53,53.33,36.66-46.08-12.92-9.5-69.84,43.33,0,1.95-25.1-17.8-62-44.16-65.83Z"/>
      <path class="cls-2" d="M540,148.35c12.37,28.57,47.71,55.47,50.17,87.5,2.04,26.43-30.49,97.95-35,131.66,23.59-39.08,50.5-81.54,44.16-129.16,93.12,104.73-26.04,120.87-54.16,244.15-5.5,24.12-5.09,35.97-5.17,35.24-.09.73.33-11.12-5.17-35.24-28.12-123.29-147.29-139.43-54.16-244.15-6.34,47.62,20.57,90.08,44.16,129.16-4.5-33.71-37.03-105.23-35-131.66,2.47-32.03,37.8-58.92,50.17-87.5Z"/>
      <path class="cls-2" d="M540,640c-5.77,26.73-52.98,132.35-83.99,128.33-14.65-18.21-40.65,36.73-15,48.33,28.04,12.69,53.62-42.89,65.83-60.83-11.29,41.71-18.89,74.09-66.66,81.66,16.81,22.17,38.9,17.2,55.83-2.5,4.42,3.44-15.6,46.62,43.99,96.66,59.59-50.04,39.57-93.22,43.99-96.66,16.93,19.7,39.02,24.67,55.83,2.5-47.78-7.58-55.37-39.96-66.66-81.66,12.21,17.94,37.79,73.52,65.83,60.83,25.65-11.6-.35-66.54-15-48.33-31,4.03-78.22-101.59-83.99-128.33Z"/>
    </g>
  </g>
</svg>