<?xml version="1.0" encoding="UTF-8"?>
<svg id="Layer_2" xmlns="http://www.w3.org/2000/svg" xmlns:xlink="http://www.w3.org/1999/xlink" viewBox="0 0 740.79 195.06">
  <defs>
    <style>
      .cls-1 {
        letter-spacing: .81em;
      }

      .cls-2 {
        letter-spacing: -.02em;
      }

      .cls-3 {
        fill: none;
      }

      .cls-4 {
        letter-spacing: .79em;
      }

      .cls-5 {
        letter-spacing: 0em;
      }

      .cls-6 {
        letter-spacing: .81em;
      }

      .cls-7 {
        letter-spacing: 0em;
      }

      .cls-8 {
        font-family: LibreFranklin-Medium, 'Libre Franklin';
        font-size: 16.72px;
        font-weight: 500;
      }

      .cls-8, .cls-9, .cls-10 {
        fill: #042d24;
      }

      .cls-11 {
        letter-spacing: -.02em;
      }

      .cls-12 {
        letter-spacing: .65em;
      }

      .cls-9 {
        font-family: Runda-Bold, Runda;
        font-size: 125.41px;
        font-weight: 700;
      }

      .cls-13 {
        clip-path: url(#clippath);
      }

      .cls-14 {
        letter-spacing: .81em;
      }

      .cls-15 {
        letter-spacing: .02em;
      }
    </style>
    <clipPath id="clippath">
      <rect class="cls-3" width="740.79" height="195.06"/>
    </clipPath>
  </defs>
  <g id="Layer_1-2" data-name="Layer_1">
    <g>
      <text class="cls-9" transform="translate(26.09 149.5)"><tspan class="cls-7" x="0" y="0">w</tspan><tspan x="102.71" y="0">oo</tspan><tspan class="cls-11" x="253.71" y="0">d</tspan><tspan class="cls-15" x="328.95" y="0">g</tspan><tspan class="cls-2" x="406.96" y="0">r</tspan><tspan class="cls-5" x="454.24" y="0">een</tspan></text>
      <text class="cls-8" transform="translate(439.52 175.8)"><tspan class="cls-6" x="0" y="0">L</tspan><tspan class="cls-14" x="23.75" y="0">A</tspan><tspan class="cls-6" x="49.66" y="0">ND</tspan><tspan class="cls-1" x="101.63" y="0">S</tspan><tspan class="cls-4" x="126.06" y="0">C</tspan><tspan class="cls-6" x="151.11" y="0">A</tspan><tspan class="cls-1" x="177.05" y="0">P</tspan><tspan class="cls-6" x="202.25" y="0">I</tspan><tspan class="cls-12" x="220.78" y="0">N</tspan><tspan x="244.29" y="0">G</tspan></text>
      <g class="cls-13">
        <path class="cls-10" d="M255.13,49.88c.46.84.88,1.61,1.3,2.37.61-.68,1.75-1.41,1.68-2.02-.09-.71-1.25-1.31-1.94-1.96-.31.48-.62.96-1.05,1.61M255.48,60.62c.26,1.46.39,2.96.88,4.36.11.31,2.09.5,2.14.36,1.4-3.25,2.73-6.54,3.88-9.87.21-.62-.13-1.81-.66-2.12-.49-.29-1.7.06-2.35.46-2.64,1.59-4.3,3.71-3.89,6.83M293.48,55.32c2.32.14,11.32-6.6,12.05-8.9.11-.34.02-.74.02-1.1-2.23.02-5.07-.72-6.54.25-2.18,1.44-3.24,4.22-5.09,6.19-.67.71-2.47,1.28-3.32.96-1.88-.71-3.45-2.07-5.2-3.08-2.12-1.22-3.08.15-3.53,1.66-.22.73.26,2.32.68,2.4,3.61.68,7.28,1.11,10.93,1.62M266.19,59.8c3.38-2.21,6.86-4.3,10.07-6.7,1.19-.89,1.92-2.43,2.48-3.8.27-.66-.33-1.63-.54-2.46-1,.21-2.09.25-2.97.67-1.65.78-3.28,1.66-4.72,2.74-1.17.87-2.46,1.95-2.93,3.18-.78,2.03-.94,4.26-1.36,6.4-.9,1.99-2.1,3.91-2.59,5.98-.27,1.14.27,2.85,1.15,3.64.5.45,2.57-.23,3.69-.8.97-.5,1.69-1.5,2.37-2.37,1.41-1.81,1.32-3.03-1.42-3.8-1.26-.36-2.17-1.75-3.25-2.68M251.87,50.87c0-.52,0-1.03,0-1.55-.12.02-.24.04-.36.06.14.48.28.97.42,1.45.06.5.12,1,.18,1.5.13-.03.26-.07.39-.1-.21-.46-.42-.91-.63-1.36M245.63,50.03l.03-.03c.59.54,1.19,1.09,1.78,1.63l-.03.02c-.59-.54-1.19-1.09-1.79-1.63M235.83,50.82c.23,1.07.67,2.14.61,3.19-.03.56-1.12,1.63-1.39,1.54-4.46-1.37-7.89,1.66-11.87,2.15-1,.13-3.07-.66-3.06-.98.14-5.29-3.73-2.76-6.09-2.55-1.54.15-2.97,1.55-4.48,1.61-1.97.08-3.96-.7-5.97-.96-1.76-.23-3.55-.19-5.32-.38-1.7-.18-4.7-.27-4.83-.83-.55-2.39-4.39-4.31-1.4-7.37.98-1,1.45-2.67,1.59-4.08.27-2.65,7.02-10.69,9.41-9.95,3.6,1.12,6.7.17,9.99.22,3.37.05,6.25-.74,9.34-1.25.09.08.17.17.27.22.07.04.18.03.27.03-.2-.07-.39-.14-.59-.2-3.47-.97-7.14-1.25-9.37-4.72-2.24-3.49-1.97-6.99,1.33-9.72,1.52-1.26,2.87-2.9,3.67-4.61,1.53-3.26,3.26-4.1,6.94-2.93,1.79.57,3.67,1.12,5.52,1.13.86,0,2.42-1.23,2.47-1.98.21-2.96,2.55-3.47,4.86-3.9,1.71-.32,3.62-.54,5.26-.16,3.12.74,5.12-.19,6.7-2.57,1.48-2.24,2.96-2.34,5.31-.5,3.22,2.53,6.9,4.59,10.53,6.64.58.33,1.93-.55,2.94-.79,2.75-.64,5.49-1.37,8.28-1.81,1.87-.3,3.82-.23,5.74-.23,1.47,0,4.01-.25,4.23.27,2.25,5.25,9.46,4.6,12.34,8.92.13.2.44.48.61.45,6.69-1.18,3.65,3.37,4.13,5.84-.04.11-.08.23-.13.33.03-.12.05-.25.08-.37,6.25-2.4,8.03-1.53,9.55,4.36.4,1.55.45,3.72,3.62,1.71,1.88-1.19,4.82-1.1,7.31-1.3.72-.06,2.28,1.04,2.21,1.32-.74,2.78,1.37,2.73,3.26,3.03.57.09,1.19.29,1.65.61,1.43,1,4.12,2.38,3.93,3.06-.48,1.73-2.2,3.21-3.55,4.7-.48.53-1.31.78-1.98,1.16.69.22,1.39.45,2.09.65.56.16,1.26.15,1.7.46,1.12.77,2.12,1.68,3.17,2.54-1.21.56-2.37,1.23-3.64,1.65-2.67.87-6.53-.54-7.57,3.45-.08.33-1.3.58-1.97.56-.87-.03-1.73-.35-2.58-.6-11.08-3.24-11.47-3.16-18.15,5.57-.5.65-.22,2.13.24,2.98,1.39,2.57,6.65,3.89,2.94,8.03.63.45,1.29.86,1.87,1.36.99.85,1.91,1.76,2.86,2.64-1.3.41-2.58.96-3.92,1.17-1.15.19-2.38.04-3.57-.05-7.2-.49-14.39-.99-21.59-1.53-.53-.04-1.11-.38-1.51-.73-2.47-2.17-4.45-1.77-6.84.41-2.64,2.41-2.37,4.33-.04,6.57.7.68,1.54,1.58,1.58,2.4.06,1.23-.53,2.48-.84,3.72-.84-.59-1.68-1.18-2.53-1.76-3.64-2.49-6.9-5.99-10.99-7.27-14.58-4.53-29.37-3.64-43.68,1.2-3.5,1.19-6.4,4.28-9.07,6.92-1.57,1.55-2.01,2.4-3.75.23-4.07-5.09-9.08-9-16.35-9.72-1.05-.1-2-.94-3-1.43.58-.87,1.16-1.74,1.75-2.6.07-.11.28-.14.35-.25,5-7.18,13.01-3.99,19.85-4.83,1.45-.18,3.15.12,4.34-.46,4.8-2.37,10.2.34,15.21-1.93,2.79-1.26,6.68-.62,10.07-.61,3.14,0,4.49,1.63,3.14,4.29-1.01,1.98-.13,2.39,1.67,2.56,2.74.26,5.48.51,8.21.76l-.03.03c.31-.02.62-.04.94-.05,0,.11,0,.23.03.33.03.08.11.15.18.22l-.26-.51c-.66-2.5-1.01-5.12-2.04-7.49-2.16-4.97-6.45-7.27-12.28-7.21l.05-.05Z"/>
      </g>
    </g>
  </g>
</svg>